<svg width="476.81899414062497px" height="122px" xmlns="http://www.w3.org/2000/svg" viewBox="11.590502929687517 14 476.81899414062497 122" style="background: none;" preserveAspectRatio="xMidYMid"><defs><filter id="editing-extrude-glow"><feFlood flood-color="#000000" result="flood-1"></feFlood><feMorphology operator="erode" radius="1" in="SourceAlpha" result="erode"></feMorphology><feComposite operator="in" in="flood-1" in2="erode" result="comp1"></feComposite><feConvolveMatrix order="3,3" divisor="1" in="comp1" result="convolve" kernelMatrix="0 0 0 1 1 1 0 0 0"></feConvolveMatrix><feOffset dx="-3" dy="0" in="convolve" result="extrude"></feOffset><feComposite operator="in" in="flood-1" in2="extrude" result="comp-extrude"></feComposite><feFlood flood-color="#175317" result="flood-2"></feFlood><feComposite operator="in" in="flood-2" in2="SourceAlpha" result="comp2"></feComposite><feMorphology operator="dilate" radius="1" in="comp2" result="dilate"></feMorphology><feOffset dx="-4.5" dy="0" in="dilate" result="offset"></feOffset><feGaussianBlur in="offset" stdDeviation="5.8" result="blur"></feGaussianBlur><feComponentTransfer in="blur" result="shadow"><feFuncA type="linear" slope="0.8" intercept="-0.2"></feFuncA></feComponentTransfer><feMerge><feMergeNode in="shadow"></feMergeNode><feMergeNode in="comp-extrude"></feMergeNode><feMergeNode in="SourceGraphic"></feMergeNode></feMerge></filter></defs><g filter="url(#editing-extrude-glow)"><g transform="translate(83.75741302967072, 103.16000175476074)"><path d="M26.05-29.57L26.05-29.57L26.05-29.57Q27.01-31.49 27.01-33.28L27.01-33.28L27.01-33.28Q27.01-35.07 26.82-36.06L26.82-36.06L26.82-36.06Q26.62-37.06 26.18-37.82L26.18-37.82L26.18-37.82Q25.22-39.49 23.30-39.49L23.30-39.49L23.30-39.49Q20.93-39.49 19.01-37.76L19.01-37.76L19.01-37.76Q16.96-35.97 16.96-33.15L16.96-33.15L16.96-33.15Q16.96-31.36 18.21-29.98L18.21-29.98L18.21-29.98Q19.46-28.61 21.38-27.33L21.38-27.33L21.38-27.33Q23.30-26.05 25.47-24.77L25.47-24.77L25.47-24.77Q27.65-23.49 29.57-21.95L29.57-21.95L29.57-21.95Q33.98-18.43 33.98-13.70L33.98-13.70L33.98-13.70Q33.98-10.50 32.29-7.78L32.29-7.78L32.29-7.78Q30.59-5.06 27.78-3.07L27.78-3.07L27.78-3.07Q21.63 1.28 13.50 1.28L13.50 1.28L13.50 1.28Q6.91 1.28 3.52-0.86L3.52-0.86L3.52-0.86Q0.13-3.01 0.13-6.27L0.13-6.27L0.13-6.27Q0.13-12.10 4.67-13.57L4.67-13.57L4.67-13.57Q5.95-14.02 7.90-14.02L7.90-14.02L7.90-14.02Q9.86-14.02 12.10-13.18L12.10-13.18L12.10-13.18Q11.07-10.56 11.07-8.19L11.07-8.19L11.07-8.19Q11.07-3.07 14.72-3.07L14.72-3.07L14.72-3.07Q17.09-3.07 19.04-4.80L19.04-4.80L19.04-4.80Q20.99-6.53 20.99-8.48L20.99-8.48L20.99-8.48Q20.99-10.43 19.74-11.84L19.74-11.84L19.74-11.84Q18.50-13.25 16.64-14.37L16.64-14.37L16.64-14.37Q14.78-15.49 12.64-16.58L12.64-16.58L12.64-16.58Q10.50-17.66 8.64-19.20L8.64-19.20L8.64-19.20Q4.29-22.72 4.29-28.35L4.29-28.35L4.29-28.35Q4.29-32 6.08-34.85L6.08-34.85L6.08-34.85Q7.87-37.70 10.75-39.62L10.75-39.62L10.75-39.62Q16.51-43.52 23.58-43.52L23.58-43.52L23.58-43.52Q30.66-43.52 34.08-41.41L34.08-41.41L34.08-41.41Q37.50-39.30 37.50-35.71L37.50-35.71L37.50-35.71Q37.50-32.58 35.07-30.59L35.07-30.59L35.07-30.59Q32.96-28.93 30.40-28.93L30.40-28.93L30.40-28.93Q27.84-28.93 26.05-29.57ZM72.26-13.25L72.26-13.25L72.26-13.25Q73.92-12.03 73.92-9.44L73.92-9.44L73.92-9.44Q73.92-6.85 72.80-5.02L72.80-5.02L72.80-5.02Q71.68-3.20 69.50-1.79L69.50-1.79L69.50-1.79Q64.83 1.22 56.67 1.22L56.67 1.22L56.67 1.22Q48.51 1.22 44.06-3.04L44.06-3.04L44.06-3.04Q39.62-7.30 39.62-14.85L39.62-14.85L39.62-14.85Q39.62-25.54 45.18-33.66L45.18-33.66L45.18-33.66Q49.41-39.68 56.96-42.24L56.96-42.24L56.96-42.24Q60.86-43.52 64.70-43.52L64.70-43.52L64.70-43.52Q68.54-43.52 70.91-43.01L70.91-43.01L70.91-43.01Q73.28-42.50 75.07-41.47L75.07-41.47L75.07-41.47Q78.98-39.23 78.98-35.65L78.98-35.65L78.98-35.65Q78.98-32.38 75.90-29.95L75.90-29.95L75.90-29.95Q73.09-27.78 70.78-27.78L70.78-27.78L70.78-27.78Q68.48-27.78 67.52-28.10L67.52-28.10L67.52-28.10Q67.78-30.40 67.78-31.90L67.78-31.90L67.78-31.90Q67.78-33.41 67.71-34.50L67.71-34.50L67.71-34.50Q67.65-35.58 67.33-36.61L67.33-36.61L67.33-36.61Q66.69-38.98 64.74-38.98L64.74-38.98L64.74-38.98Q62.78-38.98 60.83-37.15L60.83-37.15L60.83-37.15Q58.88-35.33 57.22-32.26L57.22-32.26L57.22-32.26Q53.44-25.28 53.44-17.02L53.44-17.02L53.44-17.02Q53.44-13.06 55.68-10.78L55.68-10.78L55.68-10.78Q57.92-8.51 62.72-8.51L62.72-8.51L62.72-8.51Q66.30-8.51 69.70-10.88L69.70-10.88L69.70-10.88Q71.17-11.90 72.26-13.25ZM104.19-29.57L104.19-29.57L104.19-29.57Q105.15-31.49 105.15-33.28L105.15-33.28L105.15-33.28Q105.15-35.07 104.96-36.06L104.96-36.06L104.96-36.06Q104.77-37.06 104.32-37.82L104.32-37.82L104.32-37.82Q103.36-39.49 101.44-39.49L101.44-39.49L101.44-39.49Q99.07-39.49 97.15-37.76L97.15-37.76L97.15-37.76Q95.10-35.97 95.10-33.15L95.10-33.15L95.10-33.15Q95.10-31.36 96.35-29.98L96.35-29.98L96.35-29.98Q97.60-28.61 99.52-27.33L99.52-27.33L99.52-27.33Q101.44-26.05 103.62-24.77L103.62-24.77L103.62-24.77Q105.79-23.49 107.71-21.95L107.71-21.95L107.71-21.95Q112.13-18.43 112.13-13.70L112.13-13.70L112.13-13.70Q112.13-10.50 110.43-7.78L110.43-7.78L110.43-7.78Q108.74-5.06 105.92-3.07L105.92-3.07L105.92-3.07Q99.78 1.28 91.65 1.28L91.65 1.28L91.65 1.28Q85.06 1.28 81.66-0.86L81.66-0.86L81.66-0.86Q78.27-3.01 78.27-6.27L78.27-6.27L78.27-6.27Q78.27-12.10 82.82-13.57L82.82-13.57L82.82-13.57Q84.10-14.02 86.05-14.02L86.05-14.02L86.05-14.02Q88-14.02 90.24-13.18L90.24-13.18L90.24-13.18Q89.22-10.56 89.22-8.19L89.22-8.19L89.22-8.19Q89.22-3.07 92.86-3.07L92.86-3.07L92.86-3.07Q95.23-3.07 97.18-4.80L97.18-4.80L97.18-4.80Q99.14-6.53 99.14-8.48L99.14-8.48L99.14-8.48Q99.14-10.43 97.89-11.84L97.89-11.84L97.89-11.84Q96.64-13.25 94.78-14.37L94.78-14.37L94.78-14.37Q92.93-15.49 90.78-16.58L90.78-16.58L90.78-16.58Q88.64-17.66 86.78-19.20L86.78-19.20L86.78-19.20Q82.43-22.72 82.43-28.35L82.43-28.35L82.43-28.35Q82.43-32 84.22-34.85L84.22-34.85L84.22-34.85Q86.02-37.70 88.90-39.62L88.90-39.62L88.90-39.62Q94.66-43.52 101.73-43.52L101.73-43.52L101.73-43.52Q108.80-43.52 112.22-41.41L112.22-41.41L112.22-41.41Q115.65-39.30 115.65-35.71L115.65-35.71L115.65-35.71Q115.65-32.58 113.22-30.59L113.22-30.59L113.22-30.59Q111.10-28.93 108.54-28.93L108.54-28.93L108.54-28.93Q105.98-28.93 104.19-29.57ZM157.50-9.86L157.50-9.86L157.50-9.86Q158.72-8.32 158.72-5.82L158.72-5.82L158.72-5.82Q158.72-2.37 156.16-0.54L156.16-0.54L156.16-0.54Q153.60 1.28 149.57 1.28L149.57 1.28L149.57 1.28Q147.26 1.28 143.74 0.77L143.74 0.77L143.74 0.77Q136.83-0.32 134.72-0.32L134.72-0.32L134.72-0.32Q132.61-0.32 131.78-0.22L131.78-0.22L131.78-0.22Q130.94-0.13 129.60 0L129.60 0L137.47-42.24L165.06-42.24L165.06-42.24Q165.06-38.34 163.17-36.29L163.17-36.29L163.17-36.29Q161.28-34.24 157.57-34.24L157.57-34.24L157.57-34.24Q153.86-34.24 150.08-35.97L150.08-35.97L148.10-24.77L159.49-24.77L159.49-24.77Q159.49-21.38 157.82-19.49L157.82-19.49L157.82-19.49Q156.16-17.60 153.38-17.60L153.38-17.60L153.38-17.60Q150.59-17.60 148.86-18.24L148.86-18.24L148.86-18.24Q147.14-18.88 146.94-19.07L146.94-19.07L144.64-6.98L144.64-6.98Q146.18-6.78 149.06-6.78L149.06-6.78L149.06-6.78Q153.98-6.78 157.50-9.86ZM173.12 0.19L173.12 0.19L173.12 0.19Q171.07 1.28 168.26 1.28L168.26 1.28L168.26 1.28Q165.44 1.28 163.90-0.16L163.90-0.16L163.90-0.16Q162.37-1.60 162.37-4.38L162.37-4.38L162.37-4.38Q162.37-7.17 164.32-9.89L164.32-9.89L164.32-9.89Q166.27-12.61 169.18-14.14L169.18-14.14L169.18-14.14Q172.10-15.68 174.14-16.58L174.14-16.58L170.11-25.86L170.11-25.86Q169.02-28.22 166.98-28.22L166.98-28.22L166.46-28.16L166.27-28.16L166.27-28.16Q166.66-30.40 169.28-32.13L169.28-32.13L169.28-32.13Q171.90-33.92 174.91-33.92L174.91-33.92L174.91-33.92Q179.78-33.92 182.02-29.06L182.02-29.06L182.53-28.03L185.28-21.25L185.28-21.25Q187.01-22.02 187.74-23.46L187.74-23.46L187.74-23.46Q188.48-24.90 188.48-27.74L188.48-27.74L188.48-27.74Q188.48-30.59 186.94-32.38L186.94-32.38L186.94-32.38Q189.38-33.92 192.58-33.92L192.58-33.92L192.58-33.92Q198.34-33.92 198.34-28.35L198.34-28.35L198.34-28.35Q198.34-22.27 190.72-18.75L190.72-18.75L186.88-16.96L190.34-8.06L190.34-8.06Q191.36-5.38 193.22-4.22L193.22-4.22L193.22-4.22Q193.98-3.71 194.88-3.65L194.88-3.65L194.88-3.65Q192.96-0.51 188.80 0.90L188.80 0.90L188.80 0.90Q187.52 1.28 185.79 1.28L185.79 1.28L185.79 1.28Q184.06 1.28 182.08 0.10L182.08 0.10L182.08 0.10Q180.10-1.09 179.39-2.94L179.39-2.94L175.87-12.10L175.87-12.10Q172.29-10.50 172.29-4.67L172.29-4.67L172.29-4.67Q172.29-1.98 173.12 0.19ZM229.89-4.38L229.89-4.38L229.89-4.38Q227.20-1.66 223.52-0.19L223.52-0.19L223.52-0.19Q219.84 1.28 216.19 1.28L216.19 1.28L216.19 1.28Q212.54 1.28 211.26 0.64L211.26 0.64L209.28 11.52L196.29 12.80L205.12-32.64L215.55-33.73L214.72-29.31L214.72-29.31Q217.41-33.86 222.98-33.86L222.98-33.86L222.98-33.86Q229.25-33.86 232.58-29.82L232.58-29.82L232.58-29.82Q235.52-26.18 235.52-20.61L235.52-20.61L235.52-20.61Q235.52-15.04 234.05-11.07L234.05-11.07L234.05-11.07Q232.58-7.10 229.89-4.38ZM215.42-22.34L212.03-3.58L212.03-3.58Q213.38-2.43 215.04-2.43L215.04-2.43L215.04-2.43Q216.70-2.43 217.66-3.07L217.66-3.07L217.66-3.07Q218.62-3.71 219.33-4.99L219.33-4.99L219.33-4.99Q221.25-8.45 222.78-18.94L222.78-18.94L222.78-18.94Q223.23-22.02 223.23-25.02L223.23-25.02L223.23-25.02Q223.23-28.03 222.56-28.99L222.56-28.99L222.56-28.99Q221.89-29.95 220.61-29.95L220.61-29.95L220.61-29.95Q216.70-29.95 215.42-22.34L215.42-22.34ZM253.31 1.28L253.31 1.28L253.31 1.28Q239.23 1.28 239.23-11.97L239.23-11.97L239.23-11.97Q239.23-21.38 244.42-27.46L244.42-27.46L244.42-27.46Q249.92-33.92 259.46-33.92L259.46-33.92L259.46-33.92Q266.37-33.92 269.89-30.72L269.89-30.72L269.89-30.72Q273.41-27.52 273.41-20.80L273.41-20.80L273.41-20.80Q273.41-10.56 267.90-4.61L267.90-4.61L267.90-4.61Q262.53 1.28 253.31 1.28ZM254.98-26.56L254.98-26.56L254.98-26.56Q254.21-24.83 253.60-22.24L253.60-22.24L253.60-22.24Q252.99-19.65 252.22-15.55L252.22-15.55L252.22-15.55Q251.46-11.46 251.46-6.40L251.46-6.40L251.46-6.40Q251.46-4.74 252-3.65L252-3.65L252-3.65Q252.54-2.56 254.02-2.56L254.02-2.56L254.02-2.56Q255.49-2.56 256.42-3.26L256.42-3.26L256.42-3.26Q257.34-3.97 258.05-5.63L258.05-5.63L258.05-5.63Q259.33-8.58 260.35-14.05L260.35-14.05L260.35-14.05Q261.38-19.52 261.47-21.89L261.47-21.89L261.47-21.89Q261.57-24.26 261.57-26.02L261.57-26.02L261.57-26.02Q261.57-27.78 261.06-28.93L261.06-28.93L261.06-28.93Q260.54-30.08 259.10-30.08L259.10-30.08L259.10-30.08Q257.66-30.08 256.70-29.18L256.70-29.18L256.70-29.18Q255.74-28.29 254.98-26.56ZM297.22-17.98L297.22-17.98L297.22-17.98Q299.52-22.08 299.52-26.24L299.52-26.24L299.52-26.24Q299.52-28.99 297.54-28.99L297.54-28.99L297.54-28.99Q296-28.99 294.40-26.37L294.40-26.37L294.40-26.37Q292.74-23.74 292.22-20.35L292.22-20.35L288.90 0L275.65 1.28L282.18-32.64L292.74-33.92L291.58-27.46L291.58-27.46Q294.72-33.92 301.76-33.92L301.76-33.92L301.76-33.92Q305.47-33.92 307.49-32L307.49-32L307.49-32Q309.50-30.08 309.50-26.14L309.50-26.14L309.50-26.14Q309.50-22.21 306.91-19.71L306.91-19.71L306.91-19.71Q304.32-17.22 299.90-17.22L299.90-17.22L299.90-17.22Q297.98-17.22 297.22-17.98ZM311.55-6.40L311.55-6.40L311.55-6.40Q311.55-8.13 312.45-12.48L312.45-12.48L315.84-29.76L312.06-29.76L312.32-31.68L312.32-31.68Q320-33.98 327.42-39.62L327.42-39.62L330.50-39.62L328.96-32.64L333.95-32.64L333.38-29.76L328.45-29.76L325.18-12.48L325.18-12.48Q324.35-8.51 324.35-7.17L324.35-7.17L324.35-7.17Q324.35-4.10 327.04-3.46L327.04-3.46L327.04-3.46Q326.40-1.28 324.10 0L324.10 0L324.10 0Q321.79 1.28 318.53 1.28L318.53 1.28L318.53 1.28Q315.26 1.28 313.41-0.77L313.41-0.77L313.41-0.77Q311.55-2.82 311.55-6.40Z" fill="#80a352"></path></g></g><style>text {
  font-size: 64px;
  font-family: Arial Black;
  dominant-baseline: central;
  text-anchor: middle;
}</style></svg>