<svg width="965.335302734375px" height="231.2px" xmlns="http://www.w3.org/2000/svg" viewBox="-232.6676513671875 -40.599999999999994 965.335302734375 231.2" style="background: none;" preserveAspectRatio="xMidYMid"><defs><filter id="editing-extrude-glow"><feFlood flood-color="#000000" result="flood-1"></feFlood><feMorphology operator="erode" radius="1" in="SourceAlpha" result="erode"></feMorphology><feComposite operator="in" in="flood-1" in2="erode" result="comp1"></feComposite><feConvolveMatrix order="3,3" divisor="1" in="comp1" result="convolve" kernelMatrix="0 0 0 1 1 1 0 0 0"></feConvolveMatrix><feOffset dx="-3" dy="0" in="convolve" result="extrude"></feOffset><feComposite operator="in" in="flood-1" in2="extrude" result="comp-extrude"></feComposite><feFlood flood-color="#175317" result="flood-2"></feFlood><feComposite operator="in" in="flood-2" in2="SourceAlpha" result="comp2"></feComposite><feMorphology operator="dilate" radius="1" in="comp2" result="dilate"></feMorphology><feOffset dx="-4.5" dy="0" in="dilate" result="offset"></feOffset><feGaussianBlur in="offset" stdDeviation="5.8" result="blur"></feGaussianBlur><feComponentTransfer in="blur" result="shadow"><feFuncA type="linear" slope="0.8" intercept="-0.2"></feFuncA></feComponentTransfer><feMerge><feMergeNode in="shadow"></feMergeNode><feMergeNode in="comp-extrude"></feMergeNode><feMergeNode in="SourceGraphic"></feMergeNode></feMerge></filter></defs><g filter="url(#editing-extrude-glow)"><g transform="translate(-95.11101868748665, 133.52000188827515)"><path d="M54.13-61.45L54.13-61.45L54.13-61.45Q56.13-65.44 56.13-69.16L56.13-69.16L56.13-69.16Q56.13-72.88 55.73-74.95L55.73-74.95L55.73-74.95Q55.33-77.01 54.40-78.60L54.40-78.60L54.40-78.60Q52.40-82.06 48.41-82.06L48.41-82.06L48.41-82.06Q43.49-82.06 39.50-78.47L39.50-78.47L39.50-78.47Q35.25-74.75 35.25-68.89L35.25-68.89L35.25-68.89Q35.25-65.17 37.84-62.31L37.84-62.31L37.84-62.31Q40.43-59.45 44.42-56.79L44.42-56.79L44.42-56.79Q48.41-54.13 52.93-51.47L52.93-51.47L52.93-51.47Q57.46-48.81 61.45-45.62L61.45-45.62L61.45-45.62Q70.62-38.30 70.62-28.46L70.62-28.46L70.62-28.46Q70.62-21.81 67.10-16.16L67.10-16.16L67.10-16.16Q63.57-10.51 57.72-6.38L57.72-6.38L57.72-6.38Q44.95 2.66 28.06 2.66L28.06 2.66L28.06 2.66Q14.36 2.66 7.32-1.80L7.32-1.80L7.32-1.80Q0.27-6.25 0.27-13.03L0.27-13.03L0.27-13.03Q0.27-25.14 9.71-28.20L9.71-28.20L9.71-28.20Q12.37-29.13 16.43-29.13L16.43-29.13L16.43-29.13Q20.48-29.13 25.14-27.40L25.14-27.40L25.14-27.40Q23.01-21.95 23.01-17.02L23.01-17.02L23.01-17.02Q23.01-6.38 30.59-6.38L30.59-6.38L30.59-6.38Q35.51-6.38 39.57-9.98L39.57-9.98L39.57-9.98Q43.62-13.57 43.62-17.62L43.62-17.62L43.62-17.62Q43.62-21.68 41.03-24.61L41.03-24.61L41.03-24.61Q38.44-27.53 34.58-29.86L34.58-29.86L34.58-29.86Q30.72-32.19 26.27-34.45L26.27-34.45L26.27-34.45Q21.81-36.71 17.96-39.90L17.96-39.90L17.96-39.90Q8.91-47.22 8.91-58.92L8.91-58.92L8.91-58.92Q8.91-66.50 12.64-72.42L12.64-72.42L12.64-72.42Q16.36-78.34 22.34-82.33L22.34-82.33L22.34-82.33Q34.31-90.44 49.01-90.44L49.01-90.44L49.01-90.44Q63.71-90.44 70.82-86.05L70.82-86.05L70.82-86.05Q77.94-81.66 77.94-74.21L77.94-74.21L77.94-74.21Q77.94-67.70 72.88-63.57L72.88-63.57L72.88-63.57Q68.50-60.12 63.18-60.12L63.18-60.12L63.18-60.12Q57.86-60.12 54.13-61.45ZM150.16-27.53L150.16-27.53L150.16-27.53Q153.62-25.00 153.62-19.62L153.62-19.62L153.62-19.62Q153.62-14.23 151.29-10.44L151.29-10.44L151.29-10.44Q148.96-6.65 144.44-3.72L144.44-3.72L144.44-3.72Q134.73 2.53 117.77 2.53L117.77 2.53L117.77 2.53Q100.81 2.53 91.57-6.32L91.57-6.32L91.57-6.32Q82.33-15.16 82.33-30.86L82.33-30.86L82.33-30.86Q82.33-53.07 93.90-69.96L93.90-69.96L93.90-69.96Q102.68-82.46 118.37-87.78L118.37-87.78L118.37-87.78Q126.48-90.44 134.46-90.44L134.46-90.44L134.46-90.44Q142.44-90.44 147.36-89.38L147.36-89.38L147.36-89.38Q152.28-88.31 156.01-86.18L156.01-86.18L156.01-86.18Q164.12-81.53 164.12-74.08L164.12-74.08L164.12-74.08Q164.12-67.30 157.74-62.24L157.74-62.24L157.74-62.24Q151.89-57.72 147.10-57.72L147.10-57.72L147.10-57.72Q142.31-57.72 140.31-58.39L140.31-58.39L140.31-58.39Q140.85-63.18 140.85-66.30L140.85-66.30L140.85-66.30Q140.85-69.43 140.71-71.69L140.71-71.69L140.71-71.69Q140.58-73.95 139.92-76.08L139.92-76.08L139.92-76.08Q138.59-81.00 134.53-81.00L134.53-81.00L134.53-81.00Q130.47-81.00 126.42-77.21L126.42-77.21L126.42-77.21Q122.36-73.42 118.90-67.03L118.90-67.03L118.90-67.03Q111.06-52.54 111.06-35.38L111.06-35.38L111.06-35.38Q111.06-27.13 115.71-22.41L115.71-22.41L115.71-22.41Q120.37-17.69 130.34-17.69L130.34-17.69L130.34-17.69Q137.79-17.69 144.84-22.61L144.84-22.61L144.84-22.61Q147.90-24.74 150.16-27.53ZM216.52-61.45L216.52-61.45L216.52-61.45Q218.52-65.44 218.52-69.16L218.52-69.16L218.52-69.16Q218.52-72.88 218.12-74.95L218.12-74.95L218.12-74.95Q217.72-77.01 216.79-78.60L216.79-78.60L216.79-78.60Q214.80-82.06 210.81-82.06L210.81-82.06L210.81-82.06Q205.88-82.06 201.89-78.47L201.89-78.47L201.89-78.47Q197.64-74.75 197.64-68.89L197.64-68.89L197.64-68.89Q197.64-65.17 200.23-62.31L200.23-62.31L200.23-62.31Q202.82-59.45 206.81-56.79L206.81-56.79L206.81-56.79Q210.81-54.13 215.33-51.47L215.33-51.47L215.33-51.47Q219.85-48.81 223.84-45.62L223.84-45.62L223.84-45.62Q233.02-38.30 233.02-28.46L233.02-28.46L233.02-28.46Q233.02-21.81 229.49-16.16L229.49-16.16L229.49-16.16Q225.97-10.51 220.12-6.38L220.12-6.38L220.12-6.38Q207.35 2.66 190.46 2.66L190.46 2.66L190.46 2.66Q176.76 2.66 169.71-1.80L169.71-1.80L169.71-1.80Q162.66-6.25 162.66-13.03L162.66-13.03L162.66-13.03Q162.66-25.14 172.10-28.20L172.10-28.20L172.10-28.20Q174.76-29.13 178.82-29.13L178.82-29.13L178.82-29.13Q182.88-29.13 187.53-27.40L187.53-27.40L187.53-27.40Q185.40-21.95 185.40-17.02L185.40-17.02L185.40-17.02Q185.40-6.38 192.98-6.38L192.98-6.38L192.98-6.38Q197.90-6.38 201.96-9.98L201.96-9.98L201.96-9.98Q206.02-13.57 206.02-17.62L206.02-17.62L206.02-17.62Q206.02-21.68 203.42-24.61L203.42-24.61L203.42-24.61Q200.83-27.53 196.97-29.86L196.97-29.86L196.97-29.86Q193.12-32.19 188.66-34.45L188.66-34.45L188.66-34.45Q184.21-36.71 180.35-39.90L180.35-39.90L180.35-39.90Q171.30-47.22 171.30-58.92L171.30-58.92L171.30-58.92Q171.30-66.50 175.03-72.42L175.03-72.42L175.03-72.42Q178.75-78.34 184.74-82.33L184.74-82.33L184.74-82.33Q196.71-90.44 211.40-90.44L211.40-90.44L211.40-90.44Q226.10-90.44 233.22-86.05L233.22-86.05L233.22-86.05Q240.33-81.66 240.33-74.21L240.33-74.21L240.33-74.21Q240.33-67.70 235.28-63.57L235.28-63.57L235.28-63.57Q230.89-60.12 225.57-60.12L225.57-60.12L225.57-60.12Q220.25-60.12 216.52-61.45ZM327.31-20.48L327.31-20.48L327.31-20.48Q329.84-17.29 329.84-12.10L329.84-12.10L329.84-12.10Q329.84-4.92 324.52-1.13L324.52-1.13L324.52-1.13Q319.20 2.66 310.82 2.66L310.82 2.66L310.82 2.66Q306.03 2.66 298.72 1.60L298.72 1.60L298.72 1.60Q284.35-0.67 279.97-0.67L279.97-0.67L279.97-0.67Q275.58-0.67 273.85-0.47L273.85-0.47L273.85-0.47Q272.12-0.27 269.33 0L269.33 0L285.68-87.78L343.01-87.78L343.01-87.78Q343.01-79.67 339.08-75.41L339.08-75.41L339.08-75.41Q335.16-71.16 327.45-71.16L327.45-71.16L327.45-71.16Q319.73-71.16 311.89-74.75L311.89-74.75L307.76-51.47L331.44-51.47L331.44-51.47Q331.44-44.42 327.98-40.50L327.98-40.50L327.98-40.50Q324.52-36.58 318.73-36.58L318.73-36.58L318.73-36.58Q312.95-36.58 309.36-37.91L309.36-37.91L309.36-37.91Q305.77-39.23 305.37-39.63L305.37-39.63L300.58-14.50L300.58-14.50Q303.77-14.10 309.76-14.10L309.76-14.10L309.76-14.10Q320.00-14.10 327.31-20.48ZM359.77 0.40L359.77 0.40L359.77 0.40Q355.51 2.66 349.66 2.66L349.66 2.66L349.66 2.66Q343.81 2.66 340.61-0.33L340.61-0.33L340.61-0.33Q337.42-3.33 337.42-9.11L337.42-9.11L337.42-9.11Q337.42-14.90 341.48-20.55L341.48-20.55L341.48-20.55Q345.53-26.20 351.59-29.39L351.59-29.39L351.59-29.39Q357.64-32.59 361.89-34.45L361.89-34.45L353.51-53.73L353.51-53.73Q351.25-58.65 347.00-58.65L347.00-58.65L345.93-58.52L345.53-58.52L345.53-58.52Q346.33-63.18 351.79-66.77L351.79-66.77L351.79-66.77Q357.24-70.49 363.49-70.49L363.49-70.49L363.49-70.49Q373.60-70.49 378.25-60.38L378.25-60.38L379.32-58.25L385.04-44.16L385.04-44.16Q388.63-45.75 390.16-48.74L390.16-48.74L390.16-48.74Q391.69-51.74 391.69-57.66L391.69-57.66L391.69-57.66Q391.69-63.57 388.49-67.30L388.49-67.30L388.49-67.30Q393.55-70.49 400.20-70.49L400.20-70.49L400.20-70.49Q412.17-70.49 412.17-58.92L412.17-58.92L412.17-58.92Q412.17-46.28 396.34-38.97L396.34-38.97L388.36-35.25L395.54-16.76L395.54-16.76Q397.67-11.17 401.53-8.78L401.53-8.78L401.53-8.78Q403.12-7.71 404.99-7.58L404.99-7.58L404.99-7.58Q401.00-1.06 392.35 1.86L392.35 1.86L392.35 1.86Q389.69 2.66 386.10 2.66L386.10 2.66L386.10 2.66Q382.51 2.66 378.39 0.20L378.39 0.20L378.39 0.20Q374.26-2.26 372.80-6.12L372.80-6.12L365.48-25.14L365.48-25.14Q358.04-21.81 358.04-9.71L358.04-9.71L358.04-9.71Q358.04-4.12 359.77 0.40ZM477.74-9.11L477.74-9.11L477.74-9.11Q472.15-3.46 464.50-0.40L464.50-0.40L464.50-0.40Q456.86 2.66 449.27 2.66L449.27 2.66L449.27 2.66Q441.69 2.66 439.03 1.33L439.03 1.33L434.91 23.94L407.91 26.60L426.27-67.83L447.94-70.09L446.22-60.91L446.22-60.91Q451.80-70.36 463.37-70.36L463.37-70.36L463.37-70.36Q476.41-70.36 483.32-61.98L483.32-61.98L483.32-61.98Q489.44-54.40 489.44-42.83L489.44-42.83L489.44-42.83Q489.44-31.26 486.38-23.01L486.38-23.01L486.38-23.01Q483.32-14.76 477.74-9.11ZM447.68-46.42L440.63-7.45L440.63-7.45Q443.42-5.05 446.88-5.05L446.88-5.05L446.88-5.05Q450.34-5.05 452.33-6.38L452.33-6.38L452.33-6.38Q454.33-7.71 455.79-10.37L455.79-10.37L455.79-10.37Q459.78-17.56 462.97-39.37L462.97-39.37L462.97-39.37Q463.90-45.75 463.90-52.00L463.90-52.00L463.90-52.00Q463.90-58.25 462.51-60.25L462.51-60.25L462.51-60.25Q461.11-62.24 458.45-62.24L458.45-62.24L458.45-62.24Q450.34-62.24 447.68-46.42L447.68-46.42ZM526.41 2.66L526.41 2.66L526.41 2.66Q497.15 2.66 497.15-24.87L497.15-24.87L497.15-24.87Q497.15-44.42 507.93-57.06L507.93-57.06L507.93-57.06Q519.37-70.49 539.18-70.49L539.18-70.49L539.18-70.49Q553.55-70.49 560.86-63.84L560.86-63.84L560.86-63.84Q568.18-57.19 568.18-43.23L568.18-43.23L568.18-43.23Q568.18-21.95 556.74-9.58L556.74-9.58L556.74-9.58Q545.57 2.66 526.41 2.66ZM529.87-55.20L529.87-55.20L529.87-55.20Q528.28-51.60 527.01-46.22L527.01-46.22L527.01-46.22Q525.75-40.83 524.15-32.32L524.15-32.32L524.15-32.32Q522.56-23.81 522.56-13.30L522.56-13.30L522.56-13.30Q522.56-9.84 523.69-7.58L523.69-7.58L523.69-7.58Q524.82-5.32 527.88-5.32L527.88-5.32L527.88-5.32Q530.94-5.32 532.86-6.78L532.86-6.78L532.86-6.78Q534.79-8.25 536.26-11.70L536.26-11.70L536.26-11.70Q538.92-17.82 541.04-29.19L541.04-29.19L541.04-29.19Q543.17-40.57 543.37-45.49L543.37-45.49L543.37-45.49Q543.57-50.41 543.57-54.06L543.57-54.06L543.57-54.06Q543.57-57.72 542.51-60.12L542.51-60.12L542.51-60.12Q541.44-62.51 538.45-62.51L538.45-62.51L538.45-62.51Q535.46-62.51 533.46-60.65L533.46-60.65L533.46-60.65Q531.47-58.79 529.87-55.20ZM617.65-37.37L617.65-37.37L617.65-37.37Q622.44-45.89 622.44-54.53L622.44-54.53L622.44-54.53Q622.44-60.25 618.32-60.25L618.32-60.25L618.32-60.25Q615.13-60.25 611.80-54.80L611.80-54.80L611.80-54.80Q608.34-49.34 607.28-42.29L607.28-42.29L600.36 0L572.83 2.66L586.40-67.83L608.34-70.49L605.95-57.06L605.95-57.06Q612.47-70.49 627.10-70.49L627.10-70.49L627.10-70.49Q634.81-70.49 639.00-66.50L639.00-66.50L639.00-66.50Q643.19-62.51 643.19-54.33L643.19-54.33L643.19-54.33Q643.19-46.15 637.80-40.96L637.80-40.96L637.80-40.96Q632.42-35.78 623.24-35.78L623.24-35.78L623.24-35.78Q619.25-35.78 617.65-37.37ZM647.44-13.30L647.44-13.30L647.44-13.30Q647.44-16.89 649.31-25.94L649.31-25.94L656.36-61.85L648.51-61.85L649.04-65.84L649.04-65.84Q665.00-70.62 680.43-82.33L680.43-82.33L686.81-82.33L683.62-67.83L693.99-67.83L692.80-61.85L682.56-61.85L675.77-25.94L675.77-25.94Q674.04-17.69 674.04-14.90L674.04-14.90L674.04-14.90Q674.04-8.51 679.63-7.18L679.63-7.18L679.63-7.18Q678.30-2.66 673.51 0L673.51 0L673.51 0Q668.72 2.66 661.94 2.66L661.94 2.66L661.94 2.66Q655.16 2.66 651.30-1.60L651.30-1.60L651.30-1.60Q647.44-5.85 647.44-13.30Z" fill="#80a352"></path></g></g><style>text {
  font-size: 64px;
  font-family: Arial Black;
  dominant-baseline: central;
  text-anchor: middle;
}</style></svg>